<svg id="Слой_1" data-name="Слой 1" xmlns="http://www.w3.org/2000/svg" viewBox="0 0 524.87 510.48"><defs><style>.cls-1{fill:#fff;}.cls-2{fill:#eac57e;}</style></defs><path class="cls-1" d="M423.42,739.7q-98.88,0-197.76,0a63.79,63.79,0,0,1-60.9-42.82,65,65,0,0,1-3.62-22.17q0-46.2,0-92.41,0-80,0-159.92c0-27.64,12.61-47.74,37.24-60.22,2.7-1.38,5.89-1.84,8.88-2.58,1.44-.35,2.25.33,2.23,2-.05,4.24.12,8.48-.11,12.71a4.23,4.23,0,0,1-2,2.77c-7,4-13.55,8.36-18.53,14.81A46.71,46.71,0,0,0,179,421.28q0,76.46,0,152.9c0,33.84-.18,67.67.08,101.51.15,18.55,8.89,32.34,25.24,41.16a44.34,44.34,0,0,0,19.71,5c.87,0,1.73,0,2.6,0q197,0,394,0c17.54,0,31.26-7.32,40.73-22.16,4.87-7.64,6.83-16.15,6.81-25.19q-.07-46.86,0-93.72V421.44q0-24.9-20.28-39.39a22.62,22.62,0,0,0-13.39-4.23l-10.92,0c-3.89,0-5.91-1.85-6.1-5.76-.18-3.54-.31-7.09-.32-10.64C617,348.67,617,336,617,323.23c0-13.32-.16-26.65-.14-40,0-5.69-2.67-10.33-5.62-14.8-9.11-13.8-22.09-21.27-38.56-21.29q-148.77-.25-297.54,0a46,46,0,0,0-45.71,45.45c-.13,10.29-.09,20.59,0,30.89,0,2.3-.7,3-3,2.93-4.06-.08-8.14.07-12.2.27-1.91.09-2.82-.27-2.8-2.49.12-11-.1-22,.12-33,.64-33.47,28.8-61.56,62.33-61.82,35-.26,70-.08,105-.08q96.42,0,192.82,0c27.09,0,50.28,15.62,60.15,40.48a58.56,58.56,0,0,1,4.49,22c-.09,21,0,42.06-.08,63.08,0,2.31.64,3.26,2.94,3.88a63.63,63.63,0,0,1,46.66,59.78c.22,12.28.07,24.57.07,36.86,0,73.12.11,146.24-.06,219.36-.06,25.86-11.82,45.22-34.47,57.74-9.43,5.2-19.74,7.25-30.51,7.25Q522.17,739.68,423.42,739.7Z" transform="translate(-161.13 -229.24)"/><path class="cls-2" d="M360.49,509.9v65.64H420V509.71h3.11c21.91,0,43.83,0,65.74,0a68.57,68.57,0,0,1,11.62,1c8.92,1.6,14.71,6.91,16.44,15.83a83.76,83.76,0,0,1-.1,32.75c-2.15,10.47-9.14,15.82-21.15,16.2-13.5.42-27,.28-40.53.37-4.05,0-8.1,0-12.4,0v18.2H338.06V509.9Zm82.33,46.19a6.07,6.07,0,0,0,1,.2c14.45,0,28.9.07,43.35,0,4.8,0,7.81-3.23,7.93-8.12.09-3.71,0-7.43,0-11.14,0-5.82-3-8.72-8.84-8.73q-20.5,0-41,0c-.75,0-1.51.07-2.4.11Z" transform="translate(-161.13 -229.24)"/><path class="cls-2" d="M412.86,376.67H239.29c-4.71,0-5.07-.35-5.07-5,0-3.89.05-7.79,0-11.68,0-2.44,1.1-3.5,3.46-3.43H587.14c2.3,0,3.55,1.16,3.56,3.5,0,4.67,0,9.35,0,14,0,1.72-.73,2.59-2.47,2.57H412.86Z" transform="translate(-161.13 -229.24)"/></svg>